<svg id="egifter-holiday-snow-background" xmlns="http://www.w3.org/2000/svg" viewBox="0 0 1100 359">
    <g id="Layer_2" data-name="Layer 2">
        <g id="bg">
            <path fill="#fff" opacity="0.75" d="M1062.45,217.89c-86.63,13.05-173.25,27.4-260.81,32.55-79.11,4.65-160.22,7.24-235.58-21.2-19-7.16-37.77-15.07-56.73-22.49,3.05.31,5.77.89,5.77.89s-7-5.2-6.6-6,5.4,0,5.4,0-9.6-6.3-8.4-8.8c.4-.8,5.6,0,5.6,0s-8.4-6.7-7.1-9.3c.4-.9,3.9,0,3.9,0l-7.8-12.4H500l-7.8,12.4s3.5-.9,3.9,0c1.3,2.6-7.1,9.3-7.1,9.3s5.2-.8,5.6,0c.79,1.44-2.43,4.34-5.1,6.42-18.83-6.82-37.92-12.74-57.61-16.57,5.81-.6,15,1.35,15,1.35s-9.7-7.2-9.2-8.3,7.4,0,7.4,0-13.4-8.8-11.7-12.2c.6-1.2,7.8,0,7.8,0s-11.7-9.2-9.9-12.8c.6-1.2,5.4,0,5.4,0l-10.9-17.1h-.1l-10.8,17.1s4.8-1.2,5.4,0c1.8,3.6-9.8,12.8-9.8,12.8s7.1-1.2,7.7,0c1.7,3.4-11.7,12.2-11.7,12.2s6.9-1.1,7.4,0c.42.92-.85,2.32-2.55,3.76l-2.49-.28c-2.62-2.23-5.59-5.71-5.26-6.38s5.6,0,5.6,0-8.4-6.7-7.1-9.3c.4-.9,3.9,0,3.9,0l-7.8-12.4-7.8,12.4s3.5-.9,3.9,0c1.3,2.6-7.1,9.3-7.1,9.3s4.9-1.5,5.6,0c.5,1.07-1.25,3-3.28,4.81-28.73-1.52-57.66.27-86.27,2.58C257,184,210.82,190.83,165.81,202.4c-36.92,9.5-72.92,22.44-110,31.8C37.27,238.9,18.64,243.3,0,247.61V359H1100V214.64A286.73,286.73,0,0,0,1062.45,217.89Z" />
            <path fill="#fff" d="M956.82,223c-21,5.44-41.75,11.23-62.51,16.9-4.71-3.36-13.73-10.35-12.17-13.62.7-1.5,9.9,0,9.9,0s-14.8-11.7-12.5-16.3c.8-1.5,6.9,0,6.9,0l-13.8-21.7h-.1l-13.8,21.8s6.1-1.5,6.9,0c2.3,4.6-12.5,16.3-12.5,16.3s9.1-1.5,9.9,0c2.2,4.3-14.9,15.5-14.9,15.5s8.8-1.4,9.4,0-3.6,5.4-7.3,7.8c-7.6-4.9-18.9-13.1-16.9-17.2s18.8,0,18.8,0-33.9-22.2-29.6-30.8c1.5-2.9,19.7,0,19.7,0s-29.5-23.3-25-32.5c1.5-3.1,13.8,0,13.8,0l-27.5-43.3h-.2l-27.6,43.3s12.2-3.1,13.7,0c4.5,9.2-25,32.5-25,32.5s18.2-2.9,19.7,0c2.3,4.5-6,12.8-14.4,19.6l-16.9-26.6h-.2l-17.4,27.4s7.7-2,8.7,0c2.9,5.8-15.8,20.6-15.8,20.6s11.5-1.8,12.5,0c2.7,5.4-18.7,19.5-18.7,19.5s11.1-1.7,11.9,0c1.52,3-8.74,9.75-13,12.34-73.42,6.66-148.45,4.14-220.56-10.83C419,246.8,342.42,213.5,263.26,189.14c-40-12.3-81.22-22.06-122.8-27.15-.56-.7-.82-1.34-.58-1.84,1.08-2.29,6.74,0,6.74,0S134.34,152.09,135.9,149c.49-1.09,7.1,0,7.1,0s-10.71-8.43-9-11.8c.6-1.08,4.93,0,4.93,0l-10-15.64h-.12l-9.87,15.64s4.46-1.08,4.94,0c1.68,3.37-9,11.8-9,11.8s6.62-1.09,7.1,0c1.26,2.51-6.4,8.2-9.47,10.35-8.84-.61-17.68-1-26.51-1.12V154c4-4,22.74,0,22.74,0s-12.39-7.22-11.07-10,8.91,0,8.91,0-16.13-10.59-14.08-14.68c.72-1.44,9.38,0,9.38,0s-14-11.07-11.91-15.52c.72-1.45,6.5,0,6.5,0l-13-20.58h-.12L70.19,113.82s5.78-1.45,6.5,0c2.17,4.33-11.91,15.52-11.91,15.52s8.66-1.44,9.38,0c2,4.09-14.08,14.68-14.08,14.68s8.31-1.32,8.91,0-11.07,10-11.07,10,18.77-4,22.86,0v4.12A407.07,407.07,0,0,0,0,165.64V359H1100V212.59C1053.86,200.5,1001.55,211.41,956.82,223Zm-195.18-.92h0c.7-1.5,5.3-.7,7.5-.3-2.3,1.9-4.6,3.6-6.7,5.1C761.44,225.08,761,223.38,761.64,222.08Zm3.1,21.8h0a2.6,2.6,0,0,1,.2-1.2c.2-.4,1.1-.7,2.2-.8A27.05,27.05,0,0,1,764.74,243.88Zm.8-12.5h0c3.8-.2,7.3,0,7.8,1.1s-.1,3.2-1.8,5.1C769.64,235.68,767.44,233.58,765.54,231.38ZM798,263.54q-11.29,2.26-22.71,4.17c-2.47-2.14-4.14-4.25-3.49-5.63.8-1.7,11.9,0,11.9,0a60,60,0,0,1-13-9.41c11.4-1.2,23-1.8,27.44,2.7Zm10.6-2.17v-7.79c5.8-5.8,25.9-3.7,38.2-1.8l-1,.6,2.2-.4.42.07C835.25,255.38,822,258.53,808.64,261.37Zm79.15-19.69a1.28,1.28,0,0,1,.38-.1Z" />
        </g>
    </g>
</svg>