<?xml version="1.0" encoding="utf-8"?>
<!-- Generator: Adobe Illustrator 22.0.1, SVG Export Plug-In . SVG Version: 6.00 Build 0)  -->
<svg version="1.1" id="Layer_1" xmlns="http://www.w3.org/2000/svg" xmlns:xlink="http://www.w3.org/1999/xlink" x="0px" y="0px"
	 viewBox="0 0 200 90" style="enable-background:new 0 0 200 90;" xml:space="preserve">
<style type="text/css">
	.st0{fill:#086EAA;}
</style>
<g>
	<g>
		<g>
			<path class="st0" d="M91.2,51.5c0-5.8-3-11.8-10.9-11.8c-6.7,0-11.6,5.1-11.6,11.8c0,6.7,4.5,11.8,11.6,11.8
				c4.3,0,7.6-1.5,9.9-4.6l-3.2-2.5c-1.7,2-3.6,3.4-6.2,3.4c-3.9,0-7.6-2.6-7.6-6.5h18V51.5z M73.2,49.6c0-3,2.7-6.5,7-6.5
				c4.3,0,6.4,2.8,6.5,6.5H73.2z"/>
			<path class="st0" d="M111.1,48.2v-4.3h12v16.5c-3.3,2-8.6,3.1-12.7,3.1c-11.4,0-17.9-8.1-17.9-17.6c0-9.9,7.2-17.6,17.5-17.6
				c6.2,0,9.9,1.7,12.5,4.4l-3.2,3.5c-2.7-2.6-5.9-3.5-9.3-3.5c-7.7,0-12.6,6-12.6,13.3c0,7.6,5.6,13.3,13,13.3
				c3.2,0,6.2-0.6,8.2-1.8v-9.3H111.1L111.1,48.2z"/>
			<path class="st0" d="M129.9,35.3c-1.7,0-3.1-1.4-3.1-3.1c0-1.7,1.4-3.1,3.1-3.1c1.7,0,3.1,1.4,3.1,3.1
				C133,33.9,131.6,35.3,129.9,35.3L129.9,35.3z"/>
			<polygon class="st0" points="132,62.7 127.8,62.7 127.8,40.2 132,40.2 132,62.7 			"/>
			<path class="st0" d="M148,30.4c-0.8-0.3-1.6-0.4-2.4-0.4c-3.1,0-3.6,1.9-3.6,5.1v5.2h5.1v3.7h-5.1v18.7h-4.3V43.9h-4.8v-3.7h4.8
				v-5c0-6,2.1-8.9,7.7-8.9c0.9,0,2,0,3.2,0.3L148,30.4L148,30.4z"/>
			<path class="st0" d="M158,59.3c1,0,2.2-0.1,3-0.7v3.9c-1,0.6-3,0.8-3.8,0.8c-6.6,0-6.7-4-6.7-7.6V43.9h-4.9v-3.7h4.9v-6.3h4.3
				v6.3h6.1v3.7h-6.1v10.2C154.8,56.6,154.8,59.3,158,59.3L158,59.3z"/>
			<path class="st0" d="M184.8,51.5c0-5.8-3-11.8-10.9-11.8c-6.7,0-11.6,5.1-11.6,11.8c0,6.7,4.5,11.8,11.6,11.8
				c4.3,0,7.6-1.5,9.9-4.6l-3.2-2.5c-1.7,2-3.6,3.4-6.2,3.4c-3.9,0-7.6-2.6-7.6-6.5h18V51.5z M166.8,49.6c0-3,2.7-6.5,7-6.5
				c4.3,0,6.4,2.8,6.5,6.5H166.8z"/>
			<path class="st0" d="M199.8,44.5c-0.7-0.2-1.4-0.3-2.1-0.3c-4.2,0-6.4,2.3-6.4,7.2v11.3H187V40.2h4.3v3.5h0.1
				c1.1-2.4,3.9-4,6.7-4c0.7,0,1.3,0.1,1.9,0.3L199.8,44.5L199.8,44.5z"/>
		</g>
		<g>
			<path class="st0" d="M42.8,34.9c3.9-1.2,7.8-2.5,11.7-3.8c-1.4,4-2.8,8-4.1,12.1c2.4,3.5,4.9,7,7.5,10.6
				c-4.1-0.2-8.3-0.4-12.4-0.6c-2.3,3.4-4.7,6.8-7,10.2c-0.9-2.6-1.7-5.2-2.5-7.8c-7.8,5.7-13.7,14.7-16.8,24.2
				c12.5-1.8,37.5-4.5,41.9-5.2c-1-16.8-0.9-31.7,0.9-46.9l-25.6,1.8C38.4,31.3,40.6,33.1,42.8,34.9 M43.9,64.7
				c-0.1-0.4-0.1-4.1-0.1-4.4c0.2,0,0.3,0,0.5,0c0.1,0.4,1.3,4,1.3,4C45,64.5,44.5,64.6,43.9,64.7 M49.7,65
				c-0.4-0.6-3.2-6.4-3.4-6.9c0.1-0.1,0.3-0.2,0.4-0.3c0.3,0.5,4.5,6.1,4.5,6.2C50.7,64.3,50.2,64.7,49.7,65 M57.6,62.9
				c-0.6-0.5-6-5.4-6.4-5.8c0.1-0.1,0.1-0.2,0.2-0.3c0.5,0.4,6.9,4.7,6.9,4.8C58.1,62,57.8,62.5,57.6,62.9 M59.6,42.5
				c-0.7,0.1-6.6,0.3-7.1,0.3c0-0.2-0.1-0.3-0.1-0.5c0.5-0.1,6.8-1.5,6.9-1.5C59.4,41.4,59.5,41.9,59.6,42.5"/>
			<path class="st0" d="M17,46.2c0.4-0.2,3.7-1.3,4-1.4c0.1,0.2,0.1,0.3,0.2,0.5c-0.3,0.2-3.5,2.5-3.6,2.5
				C17.4,47.3,17.2,46.7,17,46.2 M19.1,39.9c0-0.6,0.1-1.2,0.2-1.8c0.6,0.1,6.5,1.3,7,1.4c0,0.1,0,0.2,0,0.3c-0.3,0-2.2,0-3.9,0
				c-1.3,0-2.6,0-3,0C19.1,39.9,19.1,39.9,19.1,39.9 M25,34.5c0.2-0.5,0.4-1,0.7-1.4c0.5,0.2,4.3,3,4.6,3.3
				c-0.1,0.1-0.1,0.2-0.2,0.4C29.7,36.5,25.1,34.5,25,34.5 M3.9,31.8C6.1,44.7,10,64.2,12.6,77c2.8-13.3,10.6-22.7,17.3-27.7
				c-2.4-0.8-4.8-1.7-7.1-2.5c3.4-2.3,6.8-4.7,10.2-7c0-3.3,0.1-6.7,0.2-10L3.9,31.8z"/>
			<path class="st0" d="M35.1,52.9c-0.2-0.6-0.4-1.2-0.6-1.9c-0.7-0.2-1.4-0.5-2-0.7c-10.2,7.2-19.1,24.2-19.6,37.2h1.8
				C16.6,71.8,27.2,59.1,35.1,52.9"/>
			<path class="st0" d="M36.8,42.3c-1.7,1.2-3.3,2.3-5,3.5c1.9,0.7,3.9,1.4,5.8,2.1c0.6,2,1.2,4.1,1.8,6.1c1.2-1.7,2.3-3.3,3.5-5
				c2,0.1,4.1,0.2,6.1,0.3c-1.2-1.7-2.5-3.5-3.7-5.2c0.7-2,1.3-4,2-5.9c-1.9,0.6-3.9,1.2-5.8,1.8c-1.6-1.3-3.2-2.6-4.8-3.9
				C36.8,38,36.8,40.2,36.8,42.3 M5.8,22.8c-0.6-2.1,4.4-5.9,12,2.4c-1.4,0.2-2.9,0.3-4.2,0.3C9.7,25.5,6.4,24.6,5.8,22.8
				 M40.2,24.5c3.3-2.3,7.4-4.6,11.1-5.3c1.6-0.3,8.7-1.2,4.6,3c-1.8,1.7-5.9,2.5-10.7,2.5C43.5,24.8,41.8,24.7,40.2,24.5 M41.1,9.9
				c1-0.3,3.1-0.5,4.1,1.1c1.7,2.3-4,9.1-11.7,12.4c0.6-4,1.8-11.1,7-13.3l0,0C40.4,10.1,40.7,10,41.1,9.9 M18.3,9.2
				C21.9,7.3,29,13.9,28,23.6C18.5,20.6,15.1,10.7,18.3,9.2 M12.7,16.1c-8.1-3.2-16.9,5.7-8.1,11.7c5.2,3.6,12.9,1,26.5-2.2
				c10.7,2.2,20.8,1.8,26.2-0.8c6.1-3,5.8-6.5,4.9-7.9c-1.8-2.8-11.5-1.7-16.7,1.9c2-1.9,5.1-4.9,5-8.3c-0.1-3-3.4-5.1-6.5-5.1
				c-2.5,0-7.9,0.9-12.2,8.3c-1.1-3.9-4.7-7.1-7.6-8.3c-1.4-0.6-2.9-0.8-4.4-0.8C14.5,4.4,9.5,8.1,12.7,16.1"/>
		</g>
	</g>
</g>
</svg>
